<?xml version="1.0" standalone="no"?>
<!DOCTYPE svg PUBLIC "-//W3C//DTD SVG 20010904//EN"
 "http://www.w3.org/TR/2001/REC-SVG-20010904/DTD/svg10.dtd">
<svg version="1.0" xmlns="http://www.w3.org/2000/svg"
 width="512.000000pt" height="512.000000pt" viewBox="0 0 512.000000 512.000000"
 preserveAspectRatio="xMidYMid meet">
<metadata>
Created by potrace 1.14, written by Peter Selinger 2001-2017
</metadata>
<g transform="translate(0.000000,512.000000) scale(0.100000,-0.100000)"
fill="#000000" stroke="none">
<path d="M2570 4807 c-18 -9 -103 -149 -297 -490 -150 -263 -275 -487 -278
-498 -4 -11 0 -31 9 -44 l16 -25 185 0 c115 0 185 -4 185 -10 0 -26 -96 -200
-110 -200 -36 0 -262 -61 -350 -95 -153 -58 -443 -215 -480 -260 -20 -24 -28
-18 -35 28 -13 81 -103 336 -159 449 -211 431 -555 747 -913 839 -120 30 -151
29 -177 -4 -20 -27 -21 -38 -21 -265 1 -201 4 -254 22 -350 60 -309 171 -579
336 -821 85 -124 230 -279 339 -363 43 -33 78 -63 78 -65 0 -2 -14 -25 -31
-49 -46 -68 -144 -277 -179 -384 -126 -384 -80 -755 135 -1080 282 -426 801
-718 1412 -795 152 -20 454 -20 606 0 611 77 1130 369 1412 795 239 363 269
769 88 1209 -31 74 -110 227 -149 287 -14 20 -10 24 63 81 281 218 509 571
623 967 62 214 74 307 75 568 0 227 -1 238 -21 265 -26 33 -57 34 -177 4 -293
-76 -586 -307 -796 -631 -114 -175 -210 -398 -264 -611 l-22 -87 -103 69 c-57
37 -147 90 -200 117 -102 52 -291 125 -355 137 -20 4 -40 11 -42 15 -3 5 102
104 232 220 131 117 244 221 252 231 19 26 6 68 -25 79 -14 6 -108 10 -210 10
l-184 0 285 342 c250 300 286 347 283 373 -5 54 -8 55 -543 55 -375 0 -496 -3
-515 -13z m863 -129 c-40 -45 -519 -623 -536 -648 -9 -13 -17 -34 -17 -46 0
-43 22 -49 213 -54 l180 -5 -209 -186 c-115 -102 -214 -188 -220 -192 -7 -4
-36 -2 -65 3 -30 6 -118 11 -196 11 -79 0 -143 2 -143 4 0 2 26 56 57 120 54
111 56 118 42 143 l-15 27 -187 5 -186 5 236 418 237 417 415 0 414 0 -20 -22z
m-2514 -703 c201 -247 337 -542 400 -869 23 -116 43 -146 88 -130 19 6 32 20
39 43 17 54 167 156 374 255 198 95 383 145 618 168 269 26 586 -36 862 -168
207 -99 357 -201 374 -255 7 -23 20 -37 39 -43 45 -16 65 14 88 130 63 327
199 622 400 869 91 113 89 112 89 8 0 -215 57 -330 182 -368 24 -7 96 -16 161
-20 69 -4 117 -11 117 -17 0 -6 -18 -54 -41 -107 -145 -340 -373 -619 -631
-768 -91 -53 -110 -79 -84 -118 18 -27 53 -33 86 -15 16 9 24 3 50 -35 47 -68
135 -257 169 -362 44 -136 63 -249 63 -387 0 -225 -58 -413 -189 -613 -75
-115 -267 -308 -391 -391 -630 -429 -1541 -478 -2239 -121 -171 88 -284 169
-418 304 -160 160 -234 272 -310 471 -79 208 -77 483 6 737 34 105 122 294
169 362 26 38 34 44 50 35 33 -18 68 -12 86 15 26 39 7 65 -84 118 -258 149
-486 428 -631 768 -23 53 -41 101 -41 107 0 6 48 13 118 17 64 4 136 13 160
20 125 38 182 153 182 368 0 104 -2 105 89 -8z"/>
<path d="M1584 2680 c-111 -16 -223 -99 -270 -202 -25 -55 -29 -75 -29 -153 0
-78 4 -98 28 -151 95 -204 344 -274 532 -149 160 108 206 328 102 492 -75 119
-218 183 -363 163z m-63 -201 c28 -15 42 -55 28 -82 -15 -29 -28 -37 -60 -37
-33 0 -56 19 -64 52 -5 21 -1 33 19 52 27 28 46 32 77 15z"/>
<path d="M3417 2679 c-118 -19 -235 -114 -276 -224 -59 -158 -3 -338 134 -430
188 -125 437 -55 532 149 24 53 28 73 28 151 0 82 -3 97 -33 157 -69 142 -228
222 -385 197z m-47 -209 c42 -42 14 -110 -46 -110 -58 0 -83 63 -42 107 26 28
61 30 88 3z"/>
<path d="M2370 2090 c-39 -39 -18 -73 69 -114 l61 -30 0 -47 c0 -36 -6 -55
-26 -78 -24 -29 -30 -31 -93 -31 -81 0 -106 15 -122 73 -15 52 -36 77 -64 77
-82 0 -69 -140 19 -218 48 -42 98 -55 188 -51 61 4 82 9 116 32 l42 27 42 -27
c34 -23 55 -28 116 -32 90 -4 140 9 188 51 89 79 101 218 17 218 -26 0 -47
-26 -62 -77 -16 -58 -41 -73 -122 -73 -63 0 -69 2 -93 31 -20 23 -26 42 -26
78 l0 47 61 30 c87 41 108 75 69 114 -18 18 -33 20 -190 20 -157 0 -172 -2
-190 -20z"/>
<path d="M1294 1904 c-104 -37 -174 -139 -174 -254 1 -283 384 -363 506 -105
98 207 -114 436 -332 359z"/>
<path d="M3641 1903 c-137 -48 -210 -226 -147 -358 80 -170 300 -210 431 -80
53 53 75 107 75 185 0 189 -181 316 -359 253z"/>
</g>
</svg>
